<svg width="208" height="52" viewBox="0 0 208 52" fill="none" xmlns="http://www.w3.org/2000/svg">
<path d="M83.568 18.152V35H79.464V24.896L75.696 35H72.384L68.592 24.872V35H64.488V18.152H69.336L74.064 29.816L78.744 18.152H83.568ZM97.0073 32.024H90.7193L89.7113 35H85.4153L91.5113 18.152H96.2633L102.359 35H98.0153L97.0073 32.024ZM95.9513 28.856L93.8633 22.688L91.7993 28.856H95.9513ZM112.807 35L109.303 28.64H108.319V35H104.215V18.152H111.103C112.431 18.152 113.559 18.384 114.487 18.848C115.431 19.312 116.135 19.952 116.599 20.768C117.063 21.568 117.295 22.464 117.295 23.456C117.295 24.576 116.975 25.576 116.335 26.456C115.711 27.336 114.783 27.96 113.551 28.328L117.439 35H112.807ZM108.319 25.736H110.863C111.615 25.736 112.175 25.552 112.543 25.184C112.927 24.816 113.119 24.296 113.119 23.624C113.119 22.984 112.927 22.48 112.543 22.112C112.175 21.744 111.615 21.56 110.863 21.56H108.319V25.736ZM129.639 35L123.975 27.56V35H119.871V18.152H123.975V25.544L129.591 18.152H134.415L127.887 26.408L134.655 35H129.639ZM140.709 18.152V35H136.605V18.152H140.709ZM147.787 31.832H153.163V35H143.683V18.152H147.787V31.832ZM165.609 32.024H159.321L158.313 35H154.017L160.113 18.152H164.865L170.961 35H166.617L165.609 32.024ZM164.553 28.856L162.465 22.688L160.401 28.856H164.553ZM187.888 35H183.784L176.92 24.608V35H172.816V18.152H176.92L183.784 28.592V18.152H187.888V35ZM202.047 23.48C201.743 22.92 201.303 22.496 200.727 22.208C200.167 21.904 199.503 21.752 198.735 21.752C197.407 21.752 196.343 22.192 195.543 23.072C194.743 23.936 194.343 25.096 194.343 26.552C194.343 28.104 194.759 29.32 195.591 30.2C196.439 31.064 197.599 31.496 199.071 31.496C200.079 31.496 200.927 31.24 201.615 30.728C202.319 30.216 202.831 29.48 203.151 28.52H197.943V25.496H206.871V29.312C206.567 30.336 206.047 31.288 205.311 32.168C204.591 33.048 203.671 33.76 202.551 34.304C201.431 34.848 200.167 35.12 198.759 35.12C197.095 35.12 195.607 34.76 194.295 34.04C192.999 33.304 191.983 32.288 191.247 30.992C190.527 29.696 190.167 28.216 190.167 26.552C190.167 24.888 190.527 23.408 191.247 22.112C191.983 20.8 192.999 19.784 194.295 19.064C195.591 18.328 197.071 17.96 198.735 17.96C200.751 17.96 202.447 18.448 203.823 19.424C205.215 20.4 206.135 21.752 206.583 23.48H202.047Z" fill="#203C59"/>
<path d="M0 7C0 3.13401 3.13401 0 7 0H47.9296C51.7956 0 54.9296 3.13401 54.9296 7V45C54.9296 48.866 51.7956 52 47.9296 52H7C3.13401 52 0 48.866 0 45V7Z" fill="#203C59"/>
<g clip-path="url(#clip0_204_788)">
<path d="M25.26 30.6384L16.8172 24.1247C16.1453 23.6065 15.18 23.7315 14.6622 24.4029C14.144 25.0743 14.268 26.0397 14.9404 26.5579L23.3827 33.071C24.0551 33.5892 25.0199 33.4652 25.5382 32.7933C26.0564 32.1214 25.9319 31.1565 25.26 30.6384Z" fill="#EAC066"/>
<path d="M26.3107 11.818L34.7541 18.3311C35.426 18.8499 36.3908 18.7254 36.9091 18.0535C37.4273 17.3816 37.3028 16.4173 36.6309 15.8985L28.1881 9.38495C27.5162 8.86671 26.5513 8.99177 26.0331 9.66311C25.5148 10.3349 25.6394 11.2998 26.3107 11.818Z" fill="#EAC066"/>
<path d="M25.5774 12.6218L17.5182 23.0681L26.1046 29.6914L34.1633 19.2451L25.5774 12.6218Z" fill="#EAC066"/>
<path d="M46.7969 34.6425L32.4582 23.5811L29.9197 26.8715L44.2588 37.933C45.1676 38.634 46.4721 38.466 47.1725 37.5572C47.8741 36.648 47.7056 35.3435 46.7969 34.6425Z" fill="#EAC066"/>
<path d="M22.4963 38.2424C22.4963 37.1398 21.6029 36.2458 20.5003 36.2458H11.1222C10.0196 36.2458 9.12622 37.1397 9.12622 38.2424V39.7229H22.4963V38.2424Z" fill="#E9C066"/>
<path d="M23.5661 40.9766H8.0564V43.6672H23.5661V40.9766Z" fill="#E9C066"/>
</g>
<defs>
<clipPath id="clip0_204_788">
<rect width="39.5493" height="39.5493" fill="white" transform="translate(8.0564 6.59155)"/>
</clipPath>
</defs>
</svg>
