<svg width="50" height="51" viewBox="0 0 50 51" fill="none" xmlns="http://www.w3.org/2000/svg">
<path fill-rule="evenodd" clip-rule="evenodd" d="M24.6708 44.1896C19.8094 44.1069 15.1799 42.0964 11.8008 38.6005C8.42161 35.1045 6.56958 30.4094 6.65206 25.548C6.75468 20.7463 8.72876 16.1747 12.1535 12.8075C15.5782 9.44039 20.1827 7.54413 24.9854 7.52295H25.3021C29.7089 7.55134 33.9454 9.22884 37.1771 12.225L32.6083 16.4709C30.5812 14.6202 27.9344 13.596 25.1896 13.6C21.9711 13.5931 18.8791 14.8527 16.5817 17.1066C14.2842 19.3605 12.9657 22.4278 12.9109 25.6458C12.8562 28.8638 14.0697 31.9742 16.2892 34.3049C18.5087 36.6356 21.5561 37.9996 24.7729 38.1021H25.0312C27.5633 38.2324 30.0582 37.4512 32.0639 35.9003C34.0697 34.3494 35.4535 32.1313 35.9646 29.648L36.0416 29.4334H25V23.1834H42.3771C42.5125 24.3142 42.573 25.4528 42.5583 26.5917C42.3791 37.1188 35.3437 44.1938 25.0583 44.1938L24.6708 44.1896Z" fill="#EAC066"/>
<rect x="1" y="1.2666" width="48" height="48" rx="4" stroke="#EAC066" stroke-width="2"/>
</svg>
