<svg width="145" height="181" viewBox="0 0 145 181" fill="none" xmlns="http://www.w3.org/2000/svg">
<path d="M20.7399 153.419V170.267H16.6359V160.163L12.8679 170.267H9.55588L5.76388 160.139V170.267H1.65988V153.419H6.50787L11.2359 165.083L15.9159 153.419H20.7399ZM34.1791 167.291H27.8911L26.8831 170.267H22.5871L28.6831 153.419H33.4351L39.5311 170.267H35.1871L34.1791 167.291ZM33.1231 164.123L31.0351 157.955L28.9711 164.123H33.1231ZM49.9784 170.267L46.4744 163.907H45.4904V170.267H41.3864V153.419H48.2744C49.6024 153.419 50.7304 153.651 51.6584 154.115C52.6024 154.579 53.3064 155.219 53.7704 156.035C54.2344 156.835 54.4664 157.731 54.4664 158.723C54.4664 159.843 54.1464 160.843 53.5064 161.723C52.8824 162.603 51.9544 163.227 50.7224 163.595L54.6104 170.267H49.9784ZM45.4904 161.003H48.0344C48.7864 161.003 49.3464 160.819 49.7144 160.451C50.0984 160.083 50.2904 159.563 50.2904 158.891C50.2904 158.251 50.0984 157.747 49.7144 157.379C49.3464 157.011 48.7864 156.827 48.0344 156.827H45.4904V161.003ZM66.8107 170.267L61.1467 162.827V170.267H57.0427V153.419H61.1467V160.811L66.7627 153.419H71.5867L65.0587 161.675L71.8267 170.267H66.8107ZM77.8811 153.419V170.267H73.7771V153.419H77.8811ZM84.9592 167.099H90.3352V170.267H80.8552V153.419H84.9592V167.099ZM102.781 167.291H96.4927L95.4847 170.267H91.1887L97.2847 153.419H102.037L108.133 170.267H103.789L102.781 167.291ZM101.725 164.123L99.6367 157.955L97.5727 164.123H101.725ZM125.06 170.267H120.956L114.092 159.875V170.267H109.988V153.419H114.092L120.956 163.859V153.419H125.06V170.267ZM139.219 158.747C138.915 158.187 138.475 157.763 137.899 157.475C137.339 157.171 136.675 157.019 135.907 157.019C134.579 157.019 133.515 157.459 132.715 158.339C131.915 159.203 131.515 160.363 131.515 161.819C131.515 163.371 131.931 164.587 132.763 165.467C133.611 166.331 134.771 166.763 136.243 166.763C137.251 166.763 138.099 166.507 138.787 165.995C139.491 165.483 140.003 164.747 140.323 163.787H135.115V160.763H144.043V164.579C143.739 165.603 143.219 166.555 142.483 167.435C141.763 168.315 140.843 169.027 139.723 169.571C138.603 170.115 137.339 170.387 135.931 170.387C134.267 170.387 132.779 170.027 131.467 169.307C130.171 168.571 129.155 167.555 128.419 166.259C127.699 164.963 127.339 163.483 127.339 161.819C127.339 160.155 127.699 158.675 128.419 157.379C129.155 156.067 130.171 155.051 131.467 154.331C132.763 153.595 134.243 153.227 135.907 153.227C137.923 153.227 139.619 153.715 140.995 154.691C142.387 155.667 143.307 157.019 143.755 158.747H139.219Z" fill="#EAC066"/>
<path d="M0 11C0 4.92487 4.92487 0 11 0H134C140.075 0 145 4.92487 145 11V126.267C145 132.342 140.075 137.267 134 137.267H11C4.92486 137.267 0 132.342 0 126.267V11Z" fill="#EAC066"/>
<g clip-path="url(#clip0_200_89)">
<path d="M66.6799 80.8778L44.3929 63.6834C42.6193 62.3154 40.0711 62.6456 38.7043 64.4179C37.3365 66.1901 37.6638 68.7385 39.4386 70.1065L61.7241 87.2994C63.4991 88.6672 66.0461 88.34 67.4141 86.5664C68.7821 84.7926 68.4535 82.2456 66.6799 80.8778Z" fill="#203D59"/>
<path d="M69.4534 31.1969L91.7418 48.3899C93.5154 49.7593 96.0624 49.4306 97.4304 47.657C98.7984 45.8835 98.4697 43.3379 96.6961 41.9685L74.4091 24.7743C72.6356 23.4063 70.0886 23.7364 68.7206 25.5085C67.3526 27.2819 67.6815 29.8291 69.4534 31.1969Z" fill="#203D59"/>
<path d="M67.5174 33.3188L46.2433 60.8943L68.9093 78.3781L90.1822 50.8026L67.5174 33.3188Z" fill="#203D59"/>
<path d="M123.532 91.4474L85.6813 62.248L78.9801 70.934L116.832 100.133C119.231 101.984 122.674 101.541 124.523 99.1416C126.375 96.7414 125.93 93.2979 123.532 91.4474Z" fill="#203D59"/>
<path d="M59.3842 100.951C59.3842 98.04 57.026 95.6802 54.1153 95.6802H29.3596C26.4491 95.6802 24.0907 98.0398 24.0907 100.951V104.859H59.3842V100.951Z" fill="#203D59"/>
<path d="M62.2082 108.168H21.2667V115.271H62.2082V108.168Z" fill="#203D59"/>
</g>
<defs>
<clipPath id="clip0_200_89">
<rect width="104.4" height="104.4" fill="white" transform="translate(21.2667 17.4004)"/>
</clipPath>
</defs>
</svg>
