<svg width="50" height="51" viewBox="0 0 50 51" fill="none" xmlns="http://www.w3.org/2000/svg">
<path fill-rule="evenodd" clip-rule="evenodd" d="M45.8333 12.5415C44.2732 13.2253 42.6194 13.6712 40.927 13.8645C42.7004 12.8186 44.0331 11.1637 44.677 9.20821C42.9952 10.1886 41.1607 10.8794 39.25 11.252C38.445 10.4115 37.478 9.74318 36.4073 9.28732C35.3366 8.83147 34.1845 8.5976 33.0208 8.59987C31.9075 8.59109 30.8034 8.80174 29.7715 9.21981C28.7396 9.63788 27.8002 10.2552 27.007 11.0364C26.2138 11.8176 25.5822 12.7475 25.1485 13.7729C24.7148 14.7983 24.4873 15.8991 24.4791 17.0124C24.4778 17.6569 24.5512 18.2994 24.6979 18.927C21.3115 18.7655 17.9961 17.8997 14.9632 16.3848C11.9302 14.87 9.2465 12.7394 7.08329 10.129C6.3275 11.4111 5.92829 12.872 5.92704 14.3603C5.92802 15.7512 6.27582 17.1198 6.93897 18.3425C7.60211 19.5651 8.55966 20.603 9.72496 21.3624C8.37036 21.3224 7.04396 20.9656 5.85204 20.3207V20.4249C5.86412 22.3806 6.55407 24.2717 7.80431 25.7757C9.05454 27.2797 10.7877 28.3036 12.7083 28.6728C11.973 28.8692 11.2152 28.9687 10.4541 28.9686C9.91321 28.9673 9.37351 28.9171 8.84163 28.8186C9.4027 30.4998 10.4719 31.9653 11.9015 33.0128C13.3312 34.0604 15.0508 34.6382 16.8229 34.6665C13.22 37.4341 8.67824 38.6841 4.16663 38.1499C8.08778 40.6293 12.6336 41.9415 17.2729 41.9332C20.4493 41.981 23.6036 41.3966 26.5521 40.214C29.5005 39.0314 32.1844 37.2742 34.4475 35.0447C36.7105 32.8152 38.5076 30.1579 39.7341 27.2274C40.9605 24.2968 41.592 21.1517 41.5916 17.9749C41.5916 17.6061 41.5916 17.2478 41.5666 16.8853C43.2391 15.7073 44.6846 14.2343 45.8333 12.5415Z" fill="#EAC066"/>
<rect x="1" y="1.2666" width="48" height="48" rx="4" stroke="#EAC066" stroke-width="2"/>
</svg>
